<?xml version="1.0" encoding="utf-8"?>
<!-- Generator: Adobe Illustrator 21.0.0, SVG Export Plug-In . SVG Version: 6.00 Build 0)  -->
<svg version="1.1" id="Layer_1" xmlns="http://www.w3.org/2000/svg" xmlns:xlink="http://www.w3.org/1999/xlink" x="0px" y="0px"
	 viewBox="0 0 360 180.9" style="enable-background:new 0 0 360 180.9;" xml:space="preserve">
<style type="text/css">
	.st0{fill:#00346C;}
	.st1{fill:#FAA31A;}
</style>
<g>
	<path class="st0" d="M70.5,161.4c-0.2-0.2-0.4-0.4-0.6-0.6c-6.6-6.6-13.3-13.2-19.9-19.9c-0.2-0.2-0.4-0.4-0.7-0.7
		c1.2-1.2,2.5-2.4,3.7-3.6c6.2-6.2,12.3-12.3,18.5-18.5c5.1-5.1,10.2-10.2,15.4-15.4c0.9-0.9,1.8-1.8,2.7-2.7c0.6-0.6,0.6-0.6,1.2,0
		c4.6,4.6,9.2,9.3,13.9,13.9l25.9,25.9c0.2,0.2,0.5,0.5,0.9,0.9c-0.3,0.2-0.6,0.4-0.8,0.6c-12.9,12.9-25.7,25.8-38.6,38.7
		c-0.2,0.2-0.3,0.4-0.5,0.5c-0.6,0.5-1.2,0.5-1.7,0c-0.1-0.1-0.2-0.2-0.3-0.3c-5.6-5.6-11.1-11.1-16.7-16.7
		c-0.2-0.2-0.3-0.4-0.5-0.5c1.1-0.5,2.2-1,3.3-1.6c7.7-3.6,15.4-7.2,23.1-10.8c0.3-0.1,0.6-0.3,0.9-0.5c-0.4-0.1-0.7-0.1-1-0.1
		c-3.9,0-7.9,0.1-11.8,0.1c-2.9,0-5.7,0.1-8.6,0.1c-0.5,0-0.8,0.1-1,0.6c-0.4,0.8-0.9,1.5-1.3,2.2C74,155.7,72.3,158.6,70.5,161.4
		 M99.4,148c0-0.1,0-0.1,0-0.2c-0.2-0.1-0.3-0.2-0.5-0.2c-9.4-4.4-18.8-8.8-28.2-13.2c-0.2-0.1-0.3-0.2-0.5-0.2
		c-0.2,0-0.5,0.1-0.7,0.2c-0.1,0.1-0.1,0.5-0.1,0.7c0.1,0.2,0.2,0.4,0.4,0.6c2.3,3.8,4.7,7.6,7,11.4c0.4,0.6,0.8,0.9,1.5,0.9
		c6.8,0,13.5,0.1,20.3,0.1H99.4"/>
	<path class="st0" d="M65.6,57c-0.2-0.2-0.4-0.4-0.6-0.6c-5-5-10-10-15-15.1c-0.2-0.2-0.5-0.5-0.8-0.8c0.3-0.2,0.5-0.3,0.7-0.5
		c13-13,26-26.1,39-39.2c1.2-1.2,1.7-1.1,2.7,0c13,13,26,25.9,39,38.9c0.2,0.2,0.5,0.4,0.7,0.6c-0.3,0.3-0.4,0.5-0.6,0.7
		c-13.3,13.3-26.6,26.6-39.9,39.9c-0.8,0.8-0.6,0.9-1.5,0c-4.8-4.8-9.6-9.6-14.5-14.5c-0.3-0.3-0.5-0.5-0.7-0.8
		c0.1-0.1,0.2-0.2,0.3-0.2c6.8-6.9,13.7-13.7,20.5-20.6c0.2-0.2,0.3-0.4,0.5-0.6c-1.5-0.6-1.7-0.7-2.5-2.1c-0.2,0.2-0.5,0.4-0.7,0.6
		c-2.6,2.6-5.2,5.1-7.7,7.7c-4.3,4.2-8.5,8.5-12.8,12.7l-0.9-0.9c0.2-0.2,0.5-0.5,0.7-0.7c6.6-6.5,13.1-13.1,19.7-19.6
		c0.2-0.2,0.5-0.5,0.6-0.6l-2-2c-0.1,0.2-0.3,0.5-0.5,0.7c-4.4,4.4-8.7,8.8-13.1,13.2c-2.4,2.4-4.8,4.8-7.2,7.2l-1-1
		c0.2-0.2,0.5-0.5,0.7-0.7c6.6-6.6,13.1-13.2,19.7-19.7c0.2-0.2,0.5-0.5,0.7-0.8c-1.2-0.4-1.8-1.3-2.1-2.5c-0.3,0.3-0.6,0.5-0.8,0.8
		c-6.5,6.5-13.1,13-19.6,19.5C66.3,56.3,66,56.7,65.6,57 M93.8,41c-0.2,1.1,0.5,2,1.7,2.3c0.5,0.1,0.7,0,0.8-0.5c0.5-2,1.1-4,1.6-6
		c0.1-0.3,0.1-0.5-0.2-0.7c-0.9-0.9-1.7-1.8-2.6-2.6c-0.2-0.1-0.4-0.3-0.6-0.2c-2.1,0.5-4.2,1.1-6.2,1.7c-0.3,0.1-0.4,0.2-0.4,0.5
		c0,1.1,1.1,2.1,2.2,2c0.9-0.1,0.9-0.1,0.8,0.8c-0.2,1.4,0.9,2.3,2.2,2.1C93.9,40.2,93.9,40.2,93.8,41L93.8,41L93.8,41z M96.5,32.7
		c0.7,0.7,1.3,1.4,2.1,2c0.2-0.8,0.4-1.4,0.6-2.1c0.1-0.3-0.1-0.5-0.5-0.5C98,32.3,97.3,32.5,96.5,32.7
		C96.5,32.7,96.5,32.7,96.5,32.7z"/>
	<path class="st0" d="M224.3,27.9c0,13.5-11.1,24.5-24.7,24.5C186,52.4,175,41.4,175,27.8c0-13.6,11.1-24.7,24.7-24.7
		C213.2,3.2,224.3,14.4,224.3,27.9 M216.8,27.9c0-9.4-7.7-17.1-17-17.1c-9.4,0-17.1,7.6-17.2,17v0c0,9.4,7.6,17.1,17.1,17.1
		C209,44.9,216.7,37.2,216.8,27.9"/>
	<path class="st0" d="M305.2,91.4h9.8c0.2,0,0.4,0,0.6,0c0.3,0,0.4,0.1,0.5,0.4c1.2,10.6-3.5,20.6-14.1,24.2
		c-9.1,3-17.4,1.2-24.4-5.4c-5.5-5.1-7.9-11.7-7.2-19.1c1-11,9.2-19.3,19-21.3c6.7-1.4,12.8,0.4,18.4,4c0.9,0.6,1.7,1.3,2.5,2
		c0.6,0.5,0.6,0.5,0.2,1.2c-1,1.6-2.1,3.1-3.1,4.7c-0.4,0.6-0.4,0.8-1.1,0.2c-1.7-1.6-3.6-2.8-5.7-3.7c-6.3-2.7-12-1.8-17.2,2.6
		c-7,5.9-7.7,16.4-1.7,23.2c2.7,3.1,6.2,4.9,10.3,5.5c3.2,0.5,6.4,0.2,9.4-1.1c3.5-1.5,5.9-4.1,6.8-7.9c0.2-0.8,0.2-1.6,0.3-2.4
		c0-0.3-0.1-0.5-0.4-0.4c-0.2,0-0.4,0-0.6,0h-12c-0.2,0-0.4,0-0.6,0c-0.3,0-0.5-0.1-0.5-0.5c0-1.9,0-3.8,0-5.6
		c0-0.4,0.1-0.5,0.5-0.5c0.2,0,0.4,0,0.6,0L305.2,91.4z"/>
	<path class="st0" d="M297.1,32.6l13.8,19c-0.4,0-0.6,0-0.9,0c-2.5,0-5,0-7.5,0c-0.6,0-0.9-0.2-1.3-0.7c-3.9-5.7-7.9-11.3-11.8-17
		c-0.4-0.6-0.8-0.8-1.5-0.8c-1.4,0.1-2.8,0-4.2,0c-0.7,0-0.7,0-0.7,0.7c0,1.3,0,2.6,0,3.9v12.7c0,0.2,0,0.5,0,0.7
		c0,0.3-0.2,0.4-0.5,0.4c-0.4,0-0.7,0-1.1,0h-5.2c-0.7,0-0.7,0-0.7-0.8c0-4.6,0-9.2,0-13.8l0-31.8c0-0.2,0-0.4,0-0.6
		c-0.1-0.5,0.2-0.6,0.6-0.6c5.1,0,10.1-0.1,15.2,0.1c7,0.2,13.3,5.2,14.8,12.2c1.5,6.7-2.1,13.6-8.5,16.2
		C297.5,32.5,297.4,32.5,297.1,32.6 M287.5,11.5L287.5,11.5c-1.3,0-2.5,0-3.8,0c-0.7,0-0.7,0-0.7,0.7c0,4.7,0,9.4,0,14.1
		c0,0.7,0,0.7,0.7,0.7c2.3,0,4.6,0,6.9,0c2,0,3.7-0.7,5.3-2c3.3-2.8,3.8-7.5,1.1-10.6c-1.6-1.9-3.6-2.8-6-3
		C289.8,11.4,288.7,11.5,287.5,11.5"/>
	<path class="st0" d="M142,93.5v-22c0-1.1-0.1-1,1-1c4.7,0,9.5,0,14.3,0.1c3.7,0.1,7.3,1,10.6,2.7c4.8,2.5,8.1,6.4,9.7,11.6
		c1.7,5.4,1.9,10.9,0.3,16.3c-2.2,7.6-7.2,12.2-14.7,14.3c-2.5,0.7-5,1-7.6,1c-4.3,0-8.5,0-12.8,0c-0.8,0-0.8,0-0.8-0.8L142,93.5
		L142,93.5z M149.2,93.5v3.2v11.8c0,0.8,0,0.8,0.8,0.8c1.8,0,3.6,0,5.5,0c1.7,0,3.4-0.2,5-0.6c4.6-1.3,8-4,9.8-8.5
		c1.2-3.1,1.4-6.4,1-9.6c-0.9-6.5-5.1-11.1-11.6-12.5c-3.4-0.7-6.8-0.4-10.1-0.5c-0.3,0-0.4,0.1-0.4,0.4v0.7
		C149.2,83.6,149.2,88.5,149.2,93.5"/>
	<path class="st0" d="M330.2,86.6v1.3v27.6c0,1.2,0.1,1.1-1.1,1.1c-1.7,0-3.3,0-5,0c-1.3,0-1.1,0.2-1.2-1.1c0-3.4,0-6.7,0-10.1V70.9
		c0-0.2,0-0.5,0-0.7c0-0.2,0.1-0.3,0.2-0.5c0.2,0.1,0.3,0.2,0.5,0.3c0.2,0.2,0.4,0.3,0.5,0.5c9.3,9.7,18.5,19.3,27.8,29
		c0.2,0.2,0.4,0.5,0.7,0.8l0.2-0.1c0-0.3,0-0.6,0-0.9c0-9.3,0-18.5,0-27.8c0-1.3-0.2-1.1,1.1-1.1c1.8,0,3.6,0,5.5,0
		c0.6,0,0.6,0,0.7,0.7v0.5v45.8c-0.5,0.1-0.6-0.3-0.9-0.5c-1.7-1.8-3.5-3.6-5.2-5.4c-7.7-8-15.3-16-23-24
		C330.8,87.2,330.5,87,330.2,86.6"/>
	<path class="st0" d="M266.8,19.9c0,4.8,0,9.6,0,14.4c0,3.6-1,7-3,10.1c-3,4.6-7.2,7.3-12.7,8.1c-9.9,1.3-18.4-5.2-20-15.1
		c-0.2-1.3-0.3-2.6-0.3-3.9c0-9.5,0-19,0-28.5c0-1-0.1-0.9,1-0.9h5.6c0.1,0,0.2,0,0.4,0c0.5,0,0.7,0.1,0.6,0.6c0,0.2,0,0.4,0,0.6
		c0,9.4,0,18.7,0,28.1c0,1.7,0.2,3.3,0.8,4.9c1.7,4.3,5.6,7,10.1,6.8c4.3-0.2,8.1-3.2,9.4-7.5c0.4-1.4,0.6-2.8,0.6-4.3
		c0-9.3,0-18.6,0-28c0-0.2,0-0.5,0-0.7c0-0.4,0.1-0.5,0.5-0.5c2.2,0,4.4,0,6.6,0c0.3,0,0.5,0.1,0.5,0.5c0,0.2,0,0.4,0,0.6
		L266.8,19.9L266.8,19.9z"/>
	<path class="st1" d="M225.1,133.2c12.5,0.1,22.1,10.3,22.1,22.3c-0.1,12.1-10.1,21.9-22.3,21.9c-12.1-0.1-22-10-21.9-22.1
		C203,143.3,212.6,133.2,225.1,133.2 M225.1,170.6c8.3,0.1,15.4-6.9,15.3-15.3c0-8.5-6.9-15.3-15.4-15.3c-8.6,0-15.3,7.2-15.3,15.4
		C209.7,163.7,216.7,170.7,225.1,170.6"/>
	<path class="st0" d="M185.5,93.5V71.7v-0.6c0-0.7,0-0.7,0.7-0.7c1.9,0,3.9,0,5.8,0h19.6c0.2,0,0.5,0,0.7,0c0.3,0,0.5,0.1,0.5,0.5
		c0,2.1,0,4.1,0,6.2c0,0.3-0.1,0.5-0.4,0.4c-0.2,0-0.5,0-0.7,0H194h-0.6c-0.7,0-0.7,0-0.7,0.7c0,3.5,0,6.9,0,10.4
		c0,0.7,0,0.7,0.8,0.7h15.7c1.1,0,1-0.1,1,1c0,1.8,0,3.6,0,5.4c0,0.8,0,0.9-0.9,0.9h-15.5c-1.3,0-1.1-0.2-1.1,1.1c0,3.5,0,7,0,10.6
		c0,0.2,0,0.4,0,0.6c0,0.3,0.1,0.4,0.4,0.4c0.2,0,0.5,0,0.7,0h18c1.3,0,1.1-0.1,1.1,1.2c0,1.8,0,3.5,0,5.3c0,0.8,0,0.8-0.8,0.8
		c-3.3,0-6.5,0-9.8,0h-15.7c-0.2,0-0.5,0-0.7,0c-0.3,0-0.4-0.1-0.4-0.4c0-0.2,0-0.5,0-0.7L185.5,93.5z"/>
	<path class="st1" d="M272.7,159.6l12.4,17c-0.4,0-0.6,0.1-0.9,0.1c-2.2,0-4.4,0-6.6,0c-0.6,0-0.9-0.2-1.3-0.7
		c-3.5-5-7-10-10.4-15.1c-0.4-0.6-0.9-0.8-1.6-0.8c-1.2,0.1-2.3,0-3.5,0c-0.7,0-0.7,0-0.7,0.7c0,3.4,0,6.9,0,10.3c0,1.6,0,3.2,0,4.8
		c0,0.7,0,0.7-0.6,0.7c-1.8,0-3.6,0-5.5,0c-0.5,0-0.7-0.1-0.6-0.6c0-0.2,0-0.4,0-0.6c0-13.5,0-27,0-40.4c0-1.2-0.2-1.1,1.1-1.1h11.8
		c2.8,0,5.5,0.6,7.9,2c4.7,2.8,7.3,7,6.9,12.5c-0.3,5.1-2.9,8.7-7.6,10.8C273.3,159.4,273,159.5,272.7,159.6 M260,147.5v6.3
		c0,0.8,0,0.8,0.8,0.8c2,0,4.1,0,6.1,0c1.7,0,3.4-0.6,4.7-1.7c3.4-2.7,3.5-7.5,0.3-10.4c-1.5-1.3-3.2-1.9-5.2-1.9c-2,0-3.9,0-5.9,0
		c-0.8,0-0.8,0-0.8,0.8C260,143.5,260,145.5,260,147.5"/>
	<path class="st0" d="M243,81.5c-0.6-0.7-1-1.4-1.5-2c-2.9-3.1-8-3.7-11.5-1.3c-1.5,1-2.5,2.4-2.6,4.3c-0.1,1.2,0.3,2.2,1.2,3
		c0.8,0.7,1.7,1.3,2.6,1.8c1.6,0.8,3.3,1.5,5,2.2c2.6,1.1,5.1,2.2,7.4,3.7c1.4,0.9,2.6,1.9,3.8,3.1c4.1,4.5,3.6,11.8-0.5,16.1
		c-2.2,2.2-4.8,3.6-7.8,4.3c-4.5,1-9,0.9-13.3-1c-3.2-1.4-5.8-3.5-7.5-6.6c-0.4-0.7-0.4-0.7,0.2-1.1c1.6-1.1,3.1-2.2,4.7-3.3
		c0.4-0.3,0.5-0.2,0.8,0.1c2.9,4.3,7.1,5.6,12,5.1c1.2-0.1,2.4-0.5,3.5-1c0.9-0.4,1.7-1,2.4-1.7c1.5-1.7,1.7-3.9,0.4-5.8
		c-0.7-1-1.6-1.8-2.6-2.5c-2-1.4-4.2-2.3-6.4-3.3c-1.8-0.8-3.6-1.6-5.4-2.5c-1.1-0.6-2.2-1.2-3.2-2c-4.6-3.4-5.3-8.5-3.7-12.9
		c1-2.9,3-5,5.7-6.5c4.9-2.6,10-2.9,15.1-0.8c2.9,1.2,5.1,3.2,6.4,6.1c0.4,0.9,0.4,0.7-0.3,1.2C246.1,79.4,244.6,80.4,243,81.5"/>
	<path class="st1" d="M289.6,155.4v-20.2c0-0.2,0-0.4,0-0.6c0-0.4,0.1-0.6,0.6-0.6c0.2,0,0.4,0,0.6,0H314c1.2,0,1.1-0.1,1.1,1.2
		c0,1.5,0,3,0,4.5c0,0.9,0,0.9-0.9,0.9h-16.7c-1.4,0-1.2-0.1-1.2,1.2c0,3,0,5.9,0,8.9c0,0.8,0,0.8,0.8,0.8c4.8,0,9.5,0,14.3,0
		c0.2,0,0.4,0,0.6,0c0.4,0,0.5,0.2,0.5,0.5c0,1.9,0,3.8,0,5.7c0,0.3-0.1,0.4-0.4,0.4h-0.6h-13.9c-0.2,0-0.5,0-0.7,0
		c-0.3,0-0.5,0.1-0.5,0.5c0,0.4,0,0.8,0,1.2v9.1c0,1.1-0.1,1.1,1,1.1h16.3h0.6c0.9,0,0.9,0,0.9,0.9c0,1.7,0,3.3,0,5
		c0,0.8,0,0.8-0.8,0.8c-2.5,0-4.9,0-7.4,0h-16.1c-1.4,0-1.2,0.1-1.2-1.2C289.6,168.8,289.6,162.1,289.6,155.4"/>
	<path class="st1" d="M162.5,144.2c-0.1-0.2-0.2-0.4-0.3-0.5c-2.5-4.4-8.4-5-11.9-2.5c-1.4,1-2.2,2.3-2.2,4c0,1,0.3,1.9,1,2.5
		c0.7,0.6,1.5,1.2,2.3,1.7c1.9,0.9,3.9,1.7,5.8,2.6c2.1,0.9,4.2,1.9,6.1,3.2c0.8,0.6,1.7,1.2,2.4,1.9c5,4.5,4.3,11.9,0.4,15.8
		c-2,2.1-4.5,3.4-7.4,4c-4.1,0.9-8.2,0.8-12.1-0.8c-3.1-1.2-5.5-3.3-7.1-6.2c-0.4-0.7-0.4-0.7,0.2-1.1c1.4-1,2.8-2,4.1-3
		c0.6-0.4,0.6-0.4,0.9,0.1c2.6,3.7,6.2,5,10.5,4.6c1.2-0.1,2.4-0.4,3.5-0.8c0.9-0.4,1.8-1,2.5-1.7c1.4-1.5,1.5-3.6,0.4-5.3
		c-0.7-1.1-1.6-1.8-2.7-2.5c-2-1.3-4.1-2.2-6.3-3.2c-1.8-0.8-3.5-1.6-5.3-2.5c-1.4-0.7-2.6-1.6-3.7-2.8c-2.1-2.2-2.9-4.9-2.5-7.9
		c0.5-4.5,3.1-7.5,7.1-9.3c4.2-1.8,8.6-1.9,12.9-0.1c2.7,1.1,4.6,3,5.8,5.7c0.3,0.7,0.3,0.7-0.3,1.1
		C165.5,142.2,164,143.2,162.5,144.2"/>
	<path class="st0" d="M157.7,23c0.2-0.4,0.4-0.7,0.6-1c3.4-5.7,6.7-11.5,10.1-17.2c0.3-0.6,0.7-0.8,1.3-0.7c2.5,0,4.9,0,7.5,0
		c-0.2,0.5-0.4,0.8-0.6,1.2c-4.8,8.3-9.7,16.7-14.5,25c-0.4,0.7-0.6,1.5-0.6,2.3c0,6,0,12,0,18c0,0.2,0,0.4,0,0.6
		c0,0.4-0.1,0.5-0.5,0.5c-2.2,0-4.3,0-6.5,0c-0.4,0-0.5-0.1-0.5-0.5c0-0.2,0-0.4,0-0.6c0-6,0-12,0-18c0-0.8-0.2-1.6-0.6-2.3
		c-4.9-8.3-9.7-16.7-14.5-25c-0.2-0.3-0.4-0.7-0.6-1.1c0.3,0,0.5-0.1,0.8-0.1c2.3,0,4.5,0,6.8,0c0.6,0,1,0.2,1.3,0.8
		c3.4,5.8,6.7,11.6,10.1,17.3C157.3,22.3,157.5,22.6,157.7,23"/>
	<path class="st1" d="M190.3,158.7v16.7c0,0.2,0,0.5,0,0.7c0,0.4-0.1,0.5-0.5,0.5c-1.9,0-3.8,0-5.7,0c-0.4,0-0.6-0.2-0.5-0.6
		c0-0.2,0-0.5,0-0.7v-33.7c0-1.3,0.1-1.1-1.2-1.1H173c-0.8,0-0.8,0-0.8-0.8c0-1.7,0-3.5,0-5.2c0-0.7,0-0.7,0.7-0.7
		c1.2,0,2.3,0,3.5,0h24.3c1.3,0,1.1,0,1.1,1.2c0,1.6,0,3.1,0,4.7c0,0.8,0,0.8-0.8,0.8c-3.1,0-6.3,0-9.4,0h-0.5c-0.8,0-0.8,0-0.8,0.8
		C190.3,147.2,190.3,152.9,190.3,158.7"/>
	<path class="st0" d="M256.4,93.5v-22c0-1.1-0.1-1,1-1h5.2c1.3,0,1.1,0,1.1,1c0,6.1,0,12.2,0,18.3v25.4v0.6c0,0.8,0,0.8-0.8,0.8
		c-1.8,0-3.6,0-5.5,0c-1.1,0-1,0.1-1-0.9v-14.5L256.4,93.5z"/>
	<path class="st1" d="M70.5,161.4c1.7-2.8,3.5-5.6,5.2-8.4c0.5-0.7,0.9-1.5,1.3-2.2c0.2-0.4,0.6-0.6,1-0.6c2.9,0,5.7,0,8.6-0.1
		c3.9,0,7.9-0.1,11.8-0.1c0.3,0,0.7,0,1,0.1c-0.3,0.2-0.6,0.3-0.9,0.5c-7.7,3.6-15.4,7.2-23.1,10.8c-1.1,0.5-2.2,1-3.4,1.6
		L70.5,161.4z"/>
	<path class="st1" d="M65.6,57c0.3-0.4,0.7-0.7,1-1.1c6.5-6.5,13.1-13,19.6-19.5c0.2-0.2,0.5-0.5,0.8-0.8c0.3,1.2,0.9,2,2.1,2.5
		c-0.3,0.3-0.5,0.6-0.7,0.8c-6.6,6.6-13.1,13.2-19.7,19.7c-0.2,0.2-0.5,0.5-0.7,0.7L65.6,57z"/>
	<path class="st1" d="M71.8,63.2c4.3-4.2,8.5-8.5,12.8-12.7c2.6-2.6,5.2-5.1,7.7-7.7c0.2-0.2,0.4-0.4,0.7-0.6
		c0.8,1.3,0.9,1.4,2.5,2.1c-0.2,0.2-0.3,0.4-0.5,0.6c-6.8,6.9-13.7,13.7-20.5,20.6c-0.1,0.1-0.2,0.2-0.3,0.2L71.8,63.2z"/>
	<path class="st1" d="M69,60.4c2.4-2.4,4.8-4.8,7.2-7.2c4.4-4.4,8.8-8.8,13.1-13.2c0.2-0.2,0.4-0.5,0.5-0.7l2,2
		c-0.2,0.2-0.4,0.4-0.6,0.6C84.7,48.4,78.1,55,71.6,61.5c-0.2,0.2-0.5,0.5-0.7,0.7L69,60.4z"/>
	<path class="st1" d="M99.4,148h-0.7c-6.8,0-13.5-0.1-20.3-0.1c-0.7,0-1.2-0.2-1.5-0.9c-2.3-3.8-4.6-7.6-7-11.4
		c-0.1-0.2-0.3-0.4-0.4-0.6c-0.1-0.2-0.1-0.5,0.1-0.7c0.1-0.1,0.4-0.2,0.7-0.2c0.2,0,0.3,0.1,0.5,0.2c9.4,4.4,18.8,8.8,28.2,13.2
		c0.2,0.1,0.3,0.2,0.5,0.2C99.5,147.9,99.5,147.9,99.4,148"/>
	<path class="st1" d="M97.1,32.5L97.1,32.5L97.1,32.5c0.6-0.2,1.1-0.3,1.5-0.4c0.4-0.1,0.5,0.1,0.5,0.5c-0.1,0.4-0.2,0.7-0.3,1.1h0
		l0,0.1l0,0l0,0l0,0l0,0l0,0l0,0l0,0l0,0l0,0l0,0l0,0l0,0l0,0l0,0l0,0l0,0l0,0l0,0l0,0l0,0l-0.1,0.3h0l-0.5,2l0,0l0,0.1l0,0.1l0,0.1
		l0,0.1l-0.4,1.4l0,0c-0.4,1.4-0.8,2.9-1.2,4.3c-0.2,0.6-0.3,0.7-0.8,0.5c-1.2-0.3-1.9-1.2-1.7-2.3c0.1-0.8,0.1-0.8-0.8-0.7
		c-1.3,0.2-2.4-0.8-2.2-2.1c0.1-0.9,0.1-0.9-0.8-0.8c-1.1,0.1-2.2-0.9-2.2-2c0-0.3,0.1-0.4,0.4-0.5l3.1-0.8h0l0.1,0l0.1,0
		c0.6-0.2,1.3-0.3,2-0.5l0.1,0l0.1,0L97.1,32.5z"/>
	<path class="st0" d="M1.4,92.1c-0.4-0.4-0.7-0.8-1-1.2c-0.5-0.7-0.5-1.1,0.1-1.7c0.1-0.1,0.3-0.3,0.4-0.4l39-38.7
		c0.2-0.2,0.4-0.4,0.7-0.7c0.2,0.2,0.5,0.4,0.7,0.6l39.2,39.7c0.8,0.8,0.8,0.8,0,1.6c-13.2,13-26.4,26.1-39.5,39.1
		c-0.8,0.8-0.6,0.8-1.4,0C16.6,107.5,23.1,114.1,1.4,92.1"/>
	<path class="st1" d="M49.6,89c-1.8,0-4,0.7-5.6,1.3c1.1,0.9,2.8,2,5.1,2.7c1.1,0.3,2,0.4,2.7,0.3c0.6-0.1,1.1-0.4,1.5-0.7
		c0.3-0.3,0.5-0.6,0.6-0.9c0.1-0.2,0.1-0.3,0-0.4c-0.1-0.5-0.5-1.1-1.2-1.5C52,89.3,50.9,89,49.6,89 M40.5,86.8
		c0.6-1.6,1.3-3.9,1.3-5.6c0-1.3-0.3-2.3-0.8-3.1c-0.4-0.7-1-1.1-1.5-1.2c-0.1,0-0.2,0-0.4,0c-0.3,0.1-0.7,0.3-0.9,0.6v0
		c-0.3,0.4-0.6,0.8-0.7,1.5c-0.1,0.7-0.1,1.6,0.3,2.7C38.5,84.1,39.6,85.8,40.5,86.8 M23,85.7l4.2-4.2l2.2-2.2
		c0.4-0.4,1.1-0.4,1.5,0l3.6,3.6l0-0.1c-0.5-1.7-0.6-3.1-0.4-4.3c0.2-1.3,0.8-2.3,1.5-3.1c0.7-0.8,1.6-1.4,2.5-1.6
		c0.7-0.2,1.4-0.3,2-0.2c1.4,0.3,2.8,1.2,3.8,2.8c0.8,1.2,1.3,2.9,1.3,4.9c0,1.7-0.5,3.8-1,5.5c1.7-0.6,3.7-1.1,5.5-1.1
		c2,0,3.6,0.5,4.9,1.2c1.6,1,2.5,2.3,2.8,3.8c0.1,0.6,0.1,1.3-0.1,2c-0.3,0.9-0.8,1.8-1.6,2.5c-0.8,0.7-1.8,1.3-3.1,1.5
		c-1.2,0.2-2.6,0.2-4.3-0.3l-0.1,0l3.6,3.6c0.4,0.4,0.4,1.1,0,1.5l-5.9,5.9c-0.1,0.1-0.2,0.2-0.3,0.2l-0.2,0.2L34.7,97.3l7.1-7.1
		l-1.3-1.3c-2.4,2.4-4.7,4.7-7.1,7.1L23,85.7z M19.3,110.1L8.9,99.7l7.7-7.6l5.2-5.2l10.4,10.3C27.9,101.6,23.6,105.9,19.3,110.1
		 M38.5,114.2l-6.9,6.8c-0.2,0.2-0.5,0.5-0.7,0.8l-10.3-10.4l0.6-0.6l12.3-12.2l10.4,10.4L38.5,114.2z"/>
	<path class="st0" d="M21.2,110.8l-0.6,0.6l-1.3-1.3c4.3-4.3,8.6-8.6,12.9-12.9L21.6,86.8l1.3-1.3L33.4,96c2.4-2.4,4.7-4.7,7.1-7.1
		l1.3,1.3l-7.1,7.1l10.5,10.5L44,109L33.4,98.6L21.2,110.8z"/>
</g>
</svg>
